<?xml version="1.0" encoding="utf-8"?>
<!-- Generator: Adobe Illustrator 19.0.1, SVG Export Plug-In . SVG Version: 6.00 Build 0)  -->
<svg version="1.1" id="Layer_1" xmlns="http://www.w3.org/2000/svg" xmlns:xlink="http://www.w3.org/1999/xlink" x="0px" y="0px"
	 width="24px" height="24px" viewBox="-237 2489 24 24" style="enable-background:new -237 2489 24 24;" xml:space="preserve">
<style type="text/css">
	.st0{fill:none;}
	.st1{fill:#FFFFFF;}
</style>
<path class="st0" d="M-237,2489h24v24h-24V2489z"/>
<path class="st1" d="M-225,2491c-5.5,0-10,4.5-10,10s4.5,10,10,10s10-4.5,10-10S-219.5,2491-225,2491z M-229,2506.5
	c-1.4,0-2.5-1.1-2.5-2.5s1.1-2.5,2.5-2.5s2.5,1.1,2.5,2.5S-227.6,2506.5-229,2506.5z M-227.5,2497c0-1.4,1.1-2.5,2.5-2.5
	s2.5,1.1,2.5,2.5s-1.1,2.5-2.5,2.5S-227.5,2498.4-227.5,2497z M-221,2506.5c-1.4,0-2.5-1.1-2.5-2.5s1.1-2.5,2.5-2.5s2.5,1.1,2.5,2.5
	S-219.6,2506.5-221,2506.5z"/>
</svg>
