<?xml version="1.0" encoding="utf-8"?>
<!-- Generator: Adobe Illustrator 19.0.1, SVG Export Plug-In . SVG Version: 6.00 Build 0)  -->
<svg version="1.1" id="Layer_1" xmlns="http://www.w3.org/2000/svg" xmlns:xlink="http://www.w3.org/1999/xlink" x="0px" y="0px"
	 width="18px" height="18px" viewBox="-411 289.3 18 18" style="enable-background:new -411 289.3 18 18;" xml:space="preserve">
<style type="text/css">
	.st0{fill:none;}
</style>
<path class="st0" d="M-393,307.3h-18v-18h18V307.3z"/>
<path d="M-395.7,293.4l-1.1-1.1l-1.3,1.3l1.1,1.1C-397,294.7-395.7,293.4-395.7,293.4z M-401.2,290.4h-1.5v2.2h1.5V290.4z
	 M-396,299.4h2.2v-1.5h-2.2V299.4z M-404.2,302.5v3.6h4.5v-3.6c1.3-0.8,2.2-2.2,2.2-3.9c0-2.5-2-4.5-4.5-4.5s-4.5,2-4.5,4.5
	C-406.5,300.3-405.6,301.8-404.2,302.5z M-408,299.4v-1.5h-2.2v1.5H-408z M-405.9,293.7l-1.3-1.4l-1.1,1.1l1.3,1.3
	C-407,294.7-405.9,293.7-405.9,293.7z"/>
</svg>
