<?xml version="1.0" encoding="utf-8"?>
<!-- Generator: Adobe Illustrator 19.0.1, SVG Export Plug-In . SVG Version: 6.00 Build 0)  -->
<svg version="1.1" id="Layer_1" xmlns="http://www.w3.org/2000/svg" xmlns:xlink="http://www.w3.org/1999/xlink" x="0px" y="0px"
	 width="24px" height="24px" viewBox="-237 2489 24 24" style="enable-background:new -237 2489 24 24;" xml:space="preserve">
<style type="text/css">
	.st0{fill:none;}
	.st1{fill:#FFFFFF;}
</style>
<path class="st0" d="M-237,2489h24v24h-24V2489z"/>
<path class="st1" d="M-225,2491c-5.5,0-10,4.5-10,10s4.5,10,10,10c5.5,0,10-4.5,10-10S-219.5,2491-225,2491z M-218.1,2497h-2.9
	c-0.3-1.2-0.8-2.4-1.4-3.6C-220.6,2494.1-219,2495.4-218.1,2497z M-225,2493c0.8,1.2,1.5,2.5,1.9,4h-3.8
	C-226.5,2495.6-225.8,2494.2-225,2493z M-232.7,2503c-0.2-0.6-0.3-1.3-0.3-2s0.1-1.4,0.3-2h3.4c-0.1,0.7-0.1,1.3-0.1,2
	s0.1,1.3,0.1,2H-232.7z M-231.9,2505h2.9c0.3,1.2,0.8,2.4,1.4,3.6C-229.4,2507.9-231,2506.7-231.9,2505z M-229,2497h-2.9
	c1-1.7,2.5-2.9,4.3-3.6C-228.2,2494.6-228.6,2495.8-229,2497z M-225,2509c-0.8-1.2-1.5-2.5-1.9-4h3.8
	C-223.5,2506.4-224.2,2507.8-225,2509z M-222.7,2503h-4.7c-0.1-0.7-0.2-1.3-0.2-2s0.1-1.4,0.2-2h4.7c0.1,0.6,0.2,1.3,0.2,2
	S-222.6,2502.3-222.7,2503z M-222.4,2508.6c0.6-1.1,1.1-2.3,1.4-3.6h2.9C-219,2506.6-220.6,2507.9-222.4,2508.6z M-220.6,2503
	c0.1-0.7,0.1-1.3,0.1-2s-0.1-1.3-0.1-2h3.4c0.2,0.6,0.3,1.3,0.3,2s-0.1,1.4-0.3,2H-220.6z"/>
</svg>
