<?xml version="1.0" encoding="utf-8"?>
<!-- Generator: Adobe Illustrator 19.0.1, SVG Export Plug-In . SVG Version: 6.00 Build 0)  -->
<svg version="1.1" id="Layer_1" xmlns="http://www.w3.org/2000/svg" xmlns:xlink="http://www.w3.org/1999/xlink" x="0px" y="0px"
	 width="24px" height="24px" viewBox="-237 2489 24 24" style="enable-background:new -237 2489 24 24;" xml:space="preserve">
<style type="text/css">
	.st0{fill:none;}
	.st1{fill:#FFFFFF;}
</style>
<path class="st0" d="M-237,2489h24v24h-24V2489z"/>
<path class="st1" d="M-218,2492h-4.2c-0.4-1.2-1.5-2-2.8-2s-2.4,0.8-2.8,2h-4.2c-1.1,0-2,0.9-2,2v14c0,1.1,0.9,2,2,2h14
	c1.1,0,2-0.9,2-2v-14C-216,2492.9-216.9,2492-218,2492z M-225,2492c0.6,0,1,0.4,1,1s-0.4,1-1,1s-1-0.4-1-1S-225.6,2492-225,2492z
	 M-223,2506h-7v-2h7V2506z M-220,2502h-10v-2h10V2502z M-220,2498h-10v-2h10V2498z"/>
</svg>
