<?xml version="1.0" encoding="utf-8"?>
<!-- Generator: Adobe Illustrator 19.0.1, SVG Export Plug-In . SVG Version: 6.00 Build 0)  -->
<svg version="1.1" id="Layer_1" xmlns="http://www.w3.org/2000/svg" xmlns:xlink="http://www.w3.org/1999/xlink" x="0px" y="0px"
	 width="24px" height="24px" viewBox="-237 2489 24 24" style="enable-background:new -237 2489 24 24;" xml:space="preserve">
<style type="text/css">
	.st0{fill:#FFFFFF;}
</style>
<circle class="st0" cx="-228" cy="2498" r="4"/>
<path class="st0" d="M-228,2504c-2.7,0-8,1.3-8,4v2h16v-2C-220,2505.3-225.3,2504-228,2504z M-220.2,2494.4l-1.7,1.7
	c0.8,1.2,0.8,2.7,0,3.9l1.7,1.7C-218.2,2499.6-218.2,2496.6-220.2,2494.4z M-216.9,2491l-1.6,1.6c2.8,3,2.8,7.6,0,10.7l1.6,1.6
	C-213,2501.1-213,2495.1-216.9,2491z"/>
</svg>
