<?xml version="1.0" encoding="utf-8"?>
<!-- Generator: Adobe Illustrator 19.0.1, SVG Export Plug-In . SVG Version: 6.00 Build 0)  -->
<svg version="1.1" id="Layer_1" xmlns="http://www.w3.org/2000/svg" xmlns:xlink="http://www.w3.org/1999/xlink" x="0px" y="0px"
	 width="18px" height="18px" viewBox="-240 2492 18 18" style="enable-background:new -240 2492 18 18;" xml:space="preserve">
<style type="text/css">
	.st0{fill:none;}
	.st1{fill:#FFFFFF;}
</style>
<path class="st0" d="M-240,2492h18v18h-18V2492z M-232.5,2495.8h3v1.5h-3V2495.8z M-232.5,2495.8h3v1.5h-3V2495.8z"/>
<path class="st1" d="M-232.5,2504v-0.8h-5.2l0,3c0,0.8,0.7,1.5,1.5,1.5h10.5c0.8,0,1.5-0.7,1.5-1.5v-3h-5.2v0.8H-232.5z
	 M-225,2497.2h-3v-1.5l-1.5-1.5h-3l-1.5,1.5v1.5h-3c-0.8,0-1.5,0.7-1.5,1.5v2.2c0,0.8,0.7,1.5,1.5,1.5h4.5v-1.5h3v1.5h4.5
	c0.8,0,1.5-0.7,1.5-1.5v-2.2C-223.5,2497.9-224.2,2497.2-225,2497.2z M-229.5,2497.2h-3v-1.5h3V2497.2z"/>
</svg>
