<?xml version="1.0" encoding="utf-8"?>
<!-- Generator: Adobe Illustrator 19.0.1, SVG Export Plug-In . SVG Version: 6.00 Build 0)  -->
<svg version="1.1" id="Layer_1" xmlns="http://www.w3.org/2000/svg" xmlns:xlink="http://www.w3.org/1999/xlink" x="0px" y="0px"
	 width="18px" height="18px" viewBox="-240 2492 18 18" style="enable-background:new -240 2492 18 18;" xml:space="preserve">
<style type="text/css">
	.st0{fill:#FFFFFF;}
</style>
<path class="st0" d="M-224.7,2496.1l-1.1-1.1l-1.3,1.3l1.1,1.1C-226,2497.4-224.7,2496.1-224.7,2496.1z M-230.2,2493.1h-1.5v2.2h1.5
	V2493.1z M-225,2502.1h2.2v-1.5h-2.2V2502.1z M-233.2,2505.2v3.6h4.5v-3.6c1.3-0.8,2.2-2.2,2.2-3.9c0-2.5-2-4.5-4.5-4.5
	s-4.5,2-4.5,4.5C-235.5,2503.1-234.6,2504.6-233.2,2505.2z M-237,2502.1v-1.5h-2.2v1.5H-237z M-234.9,2496.4l-1.3-1.4l-1.1,1.1
	l1.3,1.3L-234.9,2496.4z"/>
</svg>
