<?xml version="1.0" encoding="utf-8"?>
<!-- Generator: Adobe Illustrator 19.0.1, SVG Export Plug-In . SVG Version: 6.00 Build 0)  -->
<svg version="1.1" id="Layer_1" xmlns="http://www.w3.org/2000/svg" xmlns:xlink="http://www.w3.org/1999/xlink" x="0px" y="0px"
	 width="24px" height="24px" viewBox="-237 2489 24 24" style="enable-background:new -237 2489 24 24;" xml:space="preserve">
<style type="text/css">
	.st0{fill:#FFFFFF;}
</style>
<path class="st0" d="M-222,2492l2.3,2.3l-2.9,2.9l1.4,1.4l2.9-2.9l2.3,2.3v-6H-222z M-234,2498l2.3-2.3l2.9,2.9l1.4-1.4l-2.9-2.9
	l2.3-2.3h-6V2498z M-228,2510l-2.3-2.3l2.9-2.9l-1.4-1.4l-2.9,2.9l-2.3-2.3v6H-228z M-216,2504l-2.3,2.3l-2.9-2.9l-1.4,1.4l2.9,2.9
	l-2.3,2.3h6V2504z"/>
</svg>
