<?xml version="1.0" encoding="utf-8"?>
<!-- Generator: Adobe Illustrator 19.0.1, SVG Export Plug-In . SVG Version: 6.00 Build 0)  -->
<svg version="1.1" id="Layer_1" xmlns="http://www.w3.org/2000/svg" xmlns:xlink="http://www.w3.org/1999/xlink" x="0px" y="0px"
	 width="24px" height="24px" viewBox="-787 589 24 24" style="enable-background:new -787 589 24 24;" xml:space="preserve">
<style type="text/css">
	.st0{fill:#FFFFFF;}
</style>
<path class="st0" d="M-775,593.5v-2.8l-3.7,3.7l3.7,3.7v-2.8c3.1,0,5.6,2.5,5.6,5.6c0,0.9-0.2,1.8-0.7,2.6l1.4,1.4
	c0.8-1.2,1.2-2.6,1.2-4C-767.5,596.9-770.9,593.5-775,593.5z M-775,606.6c-3.1,0-5.6-2.5-5.6-5.6c0-0.9,0.2-1.8,0.7-2.6l-1.4-1.4
	c-0.8,1.2-1.2,2.6-1.2,4c0,4.1,3.3,7.5,7.5,7.5v2.8l3.7-3.7l-3.7-3.7V606.6z"/>
</svg>
