<?xml version="1.0" encoding="utf-8"?>
<!-- Generator: Adobe Illustrator 19.0.1, SVG Export Plug-In . SVG Version: 6.00 Build 0)  -->
<svg version="1.1" id="Layer_1" xmlns="http://www.w3.org/2000/svg" xmlns:xlink="http://www.w3.org/1999/xlink" x="0px" y="0px"
	 width="24px" height="24px" viewBox="-408 286.3 24 24" style="enable-background:new -408 286.3 24 24;" xml:space="preserve">
<style type="text/css">
	.st0{fill:none;}
</style>
<path class="st0" d="M-408,286.3h24v24h-24V286.3z"/>
<path d="M-386.6,297.9l-9-9c-0.4-0.4-0.9-0.6-1.4-0.6h-7c-1.1,0-2,0.9-2,2v7c0,0.5,0.2,1,0.6,1.4l9,9c0.4,0.4,0.9,0.6,1.4,0.6
	s1-0.2,1.4-0.6l7-7c0.4-0.4,0.6-0.9,0.6-1.4C-386,298.7-386.2,298.2-386.6,297.9z M-402.5,293.3c-0.8,0-1.5-0.7-1.5-1.5
	c0-0.8,0.7-1.5,1.5-1.5s1.5,0.7,1.5,1.5C-401,292.6-401.7,293.3-402.5,293.3z"/>
</svg>
