<?xml version="1.0" encoding="utf-8"?>
<!-- Generator: Adobe Illustrator 19.0.1, SVG Export Plug-In . SVG Version: 6.00 Build 0)  -->
<svg version="1.1" id="Layer_1" xmlns="http://www.w3.org/2000/svg" xmlns:xlink="http://www.w3.org/1999/xlink" x="0px" y="0px"
	 width="24px" height="24px" viewBox="-237 2489 24 24" style="enable-background:new -237 2489 24 24;" xml:space="preserve">
<style type="text/css">
	.st0{fill:#FFFFFF;}
	.st1{fill:none;}
</style>
<path class="st0" d="M-222,2507.5c-2.5,0-4.7-1.4-5.8-3.5h5.8v-2h-6.4c-0.1-0.3-0.1-0.7-0.1-1s0-0.7,0.1-1h6.4v-2h-5.8
	c1.1-2.1,3.3-3.5,5.8-3.5c1.6,0,3.1,0.6,4.2,1.6l1.8-1.8c-1.6-1.4-3.7-2.3-6-2.3c-3.9,0-7.2,2.5-8.5,6h-3.5v2h3.1
	c0,0.3-0.1,0.7-0.1,1s0,0.7,0.1,1h-3.1v2h3.5c1.2,3.5,4.6,6,8.5,6c2.3,0,4.4-0.9,6-2.3l-1.8-1.8
	C-218.9,2506.9-220.4,2507.5-222,2507.5z"/>
<path class="st1" d="M-237,2489h24v24h-24V2489z"/>
</svg>
